<?xml version="1.0" encoding="UTF-8" standalone="no"?>
<!-- Created with Inkscape (http://www.inkscape.org/) -->

<svg
   version="1.1"
   id="svg1"
   width="148.8"
   height="156.37419"
   viewBox="0 0 148.8 156.37419"
   xmlns="http://www.w3.org/2000/svg"
   xmlns:svg="http://www.w3.org/2000/svg">
  <defs
     id="defs1" />
  <g
     id="g1"
     transform="translate(-15.2,-10.0258)">
    <path
       style="fill:#000000"
       d="m 55.72399,164.937 c -1.155892,-1.27724 -1.32722,-3.99425 -1.349433,-21.4 -0.02722,-21.3266 5.74e-4,-21.17127 -4.287123,-23.96288 -1.271911,-0.82811 -2.920913,-2.506 -3.664448,-3.72864 -0.743536,-1.22265 -2.852881,-3.31032 -4.687435,-4.63926 L 38.4,108.78996 V 84.53443 60.2789 L 36.548439,58.539449 C 34.88939,56.980853 33.820966,56.799998 26.272429,56.799998 15.911023,56.799998 15.2,56.294568 15.2,48.929176 c 0,-4.13243 0.2881,-5.173563 1.753564,-6.337007 1.903118,-1.510903 4.759865,-4.348919 7.730404,-7.679719 1.630022,-1.827708 2.514621,-2.112451 6.562652,-2.112451 4.149626,0 4.841217,-0.237158 6.116032,-2.097289 1.385102,-2.021054 3.429118,-4.130191 7.237348,-7.467923 1.446677,-1.267943 1.8,-2.419532 1.8,-5.86675 0,-3.464865 0.360453,-4.627763 1.875634,-6.051202 2.350938,-2.2085909 3.805586,-1.6816982 6.469143,2.343209 1.142859,1.726975 2.380249,3.139955 2.749756,3.139955 0.369507,0 1.624399,0.882811 2.788649,1.961801 1.805563,1.673339 2.116818,2.623291 2.116818,6.460534 0,3.883144 0.287805,4.736755 2.10328,6.238199 C 70.81764,36.682668 70.4,35.431477 70.4,49.126287 v 12.399015 l 2.097289,1.437348 C 77.734424,66.551848 78.4,67.651869 78.4,72.718271 c 0,7.582577 -1.282382,7.281726 31.03854,7.281726 h 27.48253 l 1.73946,-2.10328 c 5.06924,-6.129486 4.53383,-5.896719 13.56366,-5.896719 7.63828,0 8.43499,0.14698 10.03636,1.851561 1.39596,1.48593 1.73945,2.821361 1.73945,6.762651 0,4.400402 -0.21809,5.060557 -2.09729,6.348439 C 155.72515,91.196353 156,90.235421 156,107.6 c 0,17.36457 -0.27485,16.40364 5.90271,20.63734 L 164,129.67469 v 16.76265 c 0,19.98052 0.007,19.96265 -8,19.96265 -7.28058,0 -8,-1.04859 -8,-11.66053 0,-8.17726 -0.0709,-8.51877 -2.11664,-10.2 -2.18436,-1.79512 -5.52697,-5.14854 -7.831,-7.85634 -1.27495,-1.49836 -1.50688,-1.35763 -7.28462,4.4201 L 124.8,147.07096 v 4.47212 c 0,4.26339 -0.14156,4.57291 -3.03301,6.63151 -1.66816,1.18766 -4.00474,3.52424 -5.1924,5.19239 -2.47266,3.47304 -3.83703,3.75779 -6.14343,1.28217 -1.24726,-1.33878 -1.63116,-2.82752 -1.63116,-6.32551 0,-4.50972 0.0568,-4.62219 4,-7.92365 l 4,-3.34898 v -8.26745 c 0,-7.97859 -0.0737,-8.32537 -2.10789,-9.9255 -1.90681,-1.4999 -3.18717,-1.65806 -13.42199,-1.65806 -8.94538,0 -11.686354,0.26073 -13.092115,1.24536 -2.582153,1.80861 -2.218096,3.08689 1.821995,6.39745 l 3.6,2.94992 v 8.34 c 0,9.07878 -0.23559,8.53516 5.89672,13.60673 2.52317,2.08673 2.60946,2.95436 0.50328,5.06053 -1.268907,1.26891 -2.666667,1.6 -6.754637,1.6 -6.321347,0 -7.645363,-1.34698 -7.645363,-7.778 0,-5.86802 -1.649037,-7.422 -7.87601,-7.422 -6.04087,0 -7.32399,1.28105 -7.32399,7.31215 0,6.30751 -1.664359,7.88785 -8.307174,7.88785 -3.871371,0 -5.352817,-0.3403 -6.368836,-1.46299 z"
       id="path1" />
  </g>
</svg>
